<svg xmlns="http://www.w3.org/2000/svg" version="1.1" xmlns:xlink="http://www.w3.org/1999/xlink" xmlns:svgjs="http://svgjs.dev/svgjs" width="1500" height="1500" viewBox="0 0 1500 1500"><rect width="1500" height="1500" fill="#ffffff"></rect><g transform="matrix(0.6666666666666666,0,0,0.6666666666666666,249.50018472901792,249.50000000000006)"><svg viewBox="0 0 280 280" data-background-color="#ffffff" preserveAspectRatio="xMidYMid meet" height="1500" width="1500" xmlns="http://www.w3.org/2000/svg" xmlns:xlink="http://www.w3.org/1999/xlink"><g id="tight-bounds" transform="matrix(1,0,0,1,0.13994827587498548,0.13999999999998636)"><svg viewBox="0 0 279.72 279.72" height="279.72" width="279.72"><g><svg viewBox="0 0 279.72 279.72" height="279.72" width="279.72"><g><svg viewBox="0 0 279.72 279.72" height="279.72" width="279.72"><g id="textblocktransform"><svg viewBox="0 0 279.72 279.72" height="279.72" width="279.72" id="textblock"><g><svg viewBox="0 0 279.72 279.72" height="279.72" width="279.72"><g transform="matrix(1,0,0,1,57.446704652707865,57.446704652707865)"><svg viewBox="0 0 164.8265906945843 164.8265906945843" height="164.8265906945843" width="164.8265906945843"><g id="icon-0"><circle r="82" cx="82.41329534729215" cy="82.41329534729215" fill="#010c80" data-fill-palette-color="accent"></circle><svg xmlns="http://www.w3.org/2000/svg" xmlns:xlink="http://www.w3.org/1999/xlink" version="1.1" x="24.72398860418764" y="24.723988604187646" viewBox="6.533 31.94 86.934 36.12100425282112" enable-background="new 0 0 100 100" xml:space="preserve" height="115.378613486209" width="115.378613486209" class="icon-jxe-0" data-fill-palette-color="quaternary" id="jxe-0"><g fill="#ffffff" data-fill-palette-color="quaternary"><g fill="#ffffff" data-fill-palette-color="quaternary"><path fill="none" d="M80.537 60.971A1.63 1.63 0 1 0 80.534 64.231 1.63 1.63 0 0 0 80.537 60.97"></path><path fill="none" d="M38.76 61.671A1.62 1.62 0 0 0 37.424 60.97C36.869 60.97 36.379 61.247 36.086 61.671A1.64 1.64 0 0 0 35.793 62.6C35.793 63.076 35.996 63.501 36.322 63.799A1.62 1.62 0 0 0 38.524 63.799 1.62 1.62 0 0 0 38.76 61.671"></path><path fill="none" d="M78.563 41.781C78.469 44.204 78.516 46.628 78.54 49.052 80.87 49.052 83.179 49.074 85.513 49.028 84.872 46.605 84.095 44.228 83.454 41.828 81.832 41.758 80.184 41.781 78.563 41.781"></path><path d="M37.676 57.142H37.649A5.46 5.46 0 0 0 32.202 62.6 5.46 5.46 0 0 0 43.122 62.6 5.46 5.46 0 0 0 37.676 57.142M38.764 63.799A1.62 1.62 0 0 1 36.56 63.799 1.62 1.62 0 0 1 36.324 61.671 1.625 1.625 0 0 1 39 61.671 1.64 1.64 0 0 1 39.293 62.6C39.293 63.075 39.088 63.501 38.764 63.799" fill="#ffffff" data-fill-palette-color="quaternary"></path><path d="M35.463 57.142H30.858V61.671H31.7L31.71 61.613A5.77 5.77 0 0 1 35.463 57.142" fill="#ffffff" data-fill-palette-color="quaternary"></path><polygon points="71.568,35.853 81.359,35.853 81.359,31.94 30.764,31.94 30.764,55.259 71.568,55.259   " fill="#ffffff" data-fill-palette-color="quaternary"></polygon><path d="M81.018 57.142A5.46 5.46 0 1 0 81.018 68.06 5.46 5.46 0 0 0 81.018 57.142M82.117 63.799A1.6 1.6 0 0 1 81.017 64.23 1.629 1.629 0 1 1 82.617 62.304 1.6 1.6 0 0 1 82.117 63.799" fill="#ffffff" data-fill-palette-color="quaternary"></path><path d="M92.322 58.836C92.301 56.344 92.371 53.875 92.279 51.384 91.482 51.019 90.679 50.654 89.879 50.281A85 85 0 0 1 88.209 49.485 2 2 0 0 1 88 49.386C86.867 48.779 86.904 47.25 86.471 46.169 86.024 44.336 85.287 42.554 84.838 40.725 84.553 39.565 84.385 38.387 84.483 37.162 81.225 37.117 77.987 37.14 74.753 37.162H74.722V37.168L74.706 37.153V41.165L74.722 41.18C74.71 46.497 74.667 51.822 74.72 57.141H39.865A5.77 5.77 0 0 1 43.625 61.671H74.791C75.59 59.134 77.578 56.687 80.436 56.527 83.592 56.068 86.518 58.493 87.204 61.51 89.284 61.532 91.364 61.532 93.446 61.532 93.446 60.663 93.467 59.771 93.467 58.903 93.078 58.882 92.713 58.859 92.322 58.836M79.02 49.052C78.997 46.628 78.95 44.204 79.041 41.781 80.666 41.781 82.311 41.758 83.936 41.827 84.575 44.227 85.352 46.604 85.993 49.027 83.66 49.074 81.352 49.052 79.02 49.052" fill="#ffffff" data-fill-palette-color="quaternary"></path></g><path d="M26.908 34.866A0.876 0.876 0 0 0 26.033 33.991H7.408A0.875 0.875 0 1 0 7.408 35.741H26.033A0.875 0.875 0 0 0 26.908 34.866" fill="#ffffff" data-fill-palette-color="quaternary"></path><path d="M26.908 40.866A0.876 0.876 0 0 0 26.033 39.991H7.408A0.875 0.875 0 1 0 7.408 41.741H26.033A0.875 0.875 0 0 0 26.908 40.866" fill="#ffffff" data-fill-palette-color="quaternary"></path><path d="M26.908 46.866A0.876 0.876 0 0 0 26.033 45.991H7.408A0.875 0.875 0 1 0 7.408 47.741H26.033A0.875 0.875 0 0 0 26.908 46.866" fill="#ffffff" data-fill-palette-color="quaternary"></path><path d="M26.908 52.866A0.876 0.876 0 0 0 26.033 51.991H7.408A0.875 0.875 0 1 0 7.408 53.741H26.033A0.875 0.875 0 0 0 26.908 52.866" fill="#ffffff" data-fill-palette-color="quaternary"></path></g></svg></g></svg></g><g id="text-0"><path d="M0.168 102.371v0c0.278-1.925 0.713-3.681 1.305-5.268 0.595-1.593 1.185-2.986 1.77-4.179 0.579-1.195 1.274-2.358 2.086-3.489v0c1.729-2.368 3.35-3.626 4.86-3.775v0c0.33-0.075 0.675-0.046 1.036 0.089v0c1.064 0.397 1.863 1.754 2.395 4.07v0c0.362 1.532 0.537 3.6 0.527 6.206v0c2.405-5.497 4.646-8.997 6.722-10.501v0c1.111-0.849 2.134-1.1 3.069-0.75v0c1.303 0.487 2.313 1.907 3.028 4.262v0c0.743 2.556 1.028 5.573 0.855 9.051v0c-0.153 3.206-0.689 6.038-1.607 8.496v0c-0.701 1.877-1.581 3.386-2.639 4.528v0c-1.561-0.524-3.174-1.057-4.839-1.598v0c-3.704-1.163-6.805-2.21-9.301-3.142-2.49-0.93-5.055-1.983-7.696-3.16v0c-0.099 0.265-0.217 0.492-0.354 0.684-0.14 0.198-0.416 0.219-0.829 0.065v0c-0.574-0.214-0.703-0.744-0.388-1.589zM14.246 104.915l8.743 2.272c1.228-3.959 1.951-7.313 2.17-10.061 0.215-2.742 0.112-4.817-0.312-6.224-0.423-1.407-1.018-2.254-1.785-2.541v0c-1.013-0.378-2.092 0.042-3.238 1.26v0c-1.211 1.334-2.3 3.294-3.266 5.882-0.968 2.593-1.739 5.731-2.312 9.412zM4.406 96.423v0l-0.336 0.9c-0.739 1.98-0.951 3.166-0.633 3.556v0l7.133 3.072c0.809-2.168 1.275-5 1.398-8.497v0c0.057-2.279-0.161-4.048-0.654-5.305v0c-0.254-0.639-0.61-1.044-1.068-1.215-0.458-0.171-0.904-0.139-1.337 0.096-0.427 0.238-0.838 0.591-1.234 1.061-0.396 0.47-0.773 1.016-1.131 1.64-0.355 0.617-0.672 1.23-0.951 1.838v0c-0.432 0.941-0.828 1.892-1.187 2.854z" fill="#0080ff" data-fill-palette-color="primary"></path><path d="M32.584 62.453v0c-1.233 0.494-2.307 1.453-3.222 2.879v0c-0.863 1.345-1.411 2.748-1.645 4.21v0c-0.481 2.751-0.265 4.984 0.649 6.698v0c0.426 0.764 1.007 1.382 1.743 1.855v0c0.133 0.086 0.496 0.318 1.087 0.697 0.597 0.383 1.47 0.788 2.62 1.215 1.14 0.429 2.229 0.976 3.266 1.641v0c-0.271 0.473-0.452 0.876-0.543 1.21-0.095 0.34-0.204 0.605-0.327 0.797-0.126 0.197-0.321 0.309-0.584 0.337-0.263 0.028-0.7-0.032-1.31-0.178v0c-0.142-0.059-0.538-0.251-1.187-0.578-0.644-0.323-1.429-0.712-2.356-1.167-0.933-0.459-1.951-0.957-3.055-1.494-1.1-0.542-2.184-1.078-3.252-1.607v0c-2.32-1.153-4.028-1.991-5.124-2.514v0c-0.522-0.335-0.539-0.882-0.052-1.641v0c0.29-0.452 0.71-0.686 1.26-0.701 0.544-0.019 1.108 0.052 1.691 0.214 0.584 0.162 1.13 0.369 1.639 0.621 0.509 0.253 0.876 0.419 1.103 0.499v0c-0.723-4.497 0.276-8.867 2.998-13.109v0c0.305-0.475 0.634-0.963 0.988-1.465v0c0.062-0.148 0.155-0.318 0.278-0.509 0.126-0.197 0.383-0.31 0.771-0.34v0c0.454-0.044 0.898 0.073 1.332 0.352v0c1.084 0.695 1.494 1.388 1.232 2.078z" fill="#0080ff" data-fill-palette-color="primary"></path><path d="M33.966 54.21l1.562-1.858c3.892 2.839 8.336 6.205 13.332 10.096v0c0.514 0.63 0.423 1.359-0.272 2.186v0c-0.182 0.216-0.412 0.4-0.693 0.552-0.28 0.151-0.524 0.19-0.73 0.114v0zM29.205 51.72v0c-0.685-0.576-0.689-1.267-0.011-2.074v0c0.447-0.532 0.927-0.867 1.437-1.004v0c0.265 0.124 0.503 0.274 0.714 0.451 0.206 0.173 0.339 0.42 0.402 0.742v0c0.067 0.326-0.03 0.645-0.291 0.957-0.266 0.316-0.605 0.571-1.019 0.762-0.413 0.192-0.824 0.247-1.232 0.166z" fill="#0080ff" data-fill-palette-color="primary"></path><path d="M55.009 44.71v0c2.063-1.938 3.587-2.382 4.572-1.333v0c0.74 0.788 1.031 2.244 0.873 4.368v0c-0.245 3.159-1.371 6.561-3.38 10.205v0c-0.13 0.123-0.399 0.129-0.805 0.019-0.406-0.11-0.715-0.198-0.927-0.263-0.217-0.06-0.365-0.092-0.443-0.094v0c1.488-2.74 2.451-5.265 2.889-7.576v0c0.302-1.559 0.25-2.555-0.155-2.986-0.401-0.427-1.156-0.119-2.265 0.923-1.104 1.037-2.48 2.821-4.127 5.352v0c-1.007 0.88-2.175 1.325-3.506 1.338v0c-1.164-0.002-2.022-0.297-2.574-0.884-0.556-0.592-0.9-1.295-1.03-2.108-0.126-0.817-0.11-1.706 0.046-2.665 0.157-0.96 0.441-1.969 0.855-3.028v0c1.012-2.604 2.501-4.83 4.468-6.679v0c0.582-0.547 1.196-1.02 1.842-1.418v0c0.452-0.424 0.901-0.474 1.349-0.148 0.438 0.325 1.079 0.937 1.923 1.835v0c-1.576 0.535-3.056 1.454-4.441 2.756v0c-1.726 1.622-2.826 3.307-3.3 5.056v0c-0.527 1.762-0.3 3.206 0.684 4.332v0c0.49 0.522 1.119 0.422 1.887-0.299v0l1.843-2.156c1.413-2.026 2.653-3.542 3.722-4.547z" fill="#0080ff" data-fill-palette-color="primary"></path><path d="M67.089 39.168v0l1.956 2.736c1.098 1.742 1.348 3.057 0.752 3.945v0c-0.131 0.18-0.316 0.345-0.554 0.496-0.239 0.151-0.556 0.273-0.952 0.368v0l-7.653-12.221c-1.112-1.765-2.331-3.467-3.657-5.107-1.324-1.648-2.54-3.352-3.648-5.111v0c-0.437-0.693-0.285-1.273 0.454-1.74v0l0.263-0.165c0.151-0.095 0.253-0.147 0.304-0.155v0c1.178 1.146 2.424 2.64 3.74 4.48v0c2.911 4.091 4.927 6.805 6.046 8.143v0c0.242-0.429 0.719-1.507 1.43-3.233 0.705-1.722 1.274-3.106 1.706-4.152 0.438-1.049 0.853-2.031 1.245-2.945v0c0.959-2.094 1.646-3.271 2.059-3.532v0c0.35-0.22 0.754-0.186 1.213 0.103v0c-0.227 2.056-1.02 4.684-2.381 7.885v0c-0.557 1.287-1.109 2.567-1.658 3.84-0.549 1.274-0.999 2.522-1.351 3.745v0c1.702-0.527 3.34-0.99 4.913-1.386 1.573-0.397 3.078-0.804 4.516-1.222v0c3.329-0.942 6.038-1.998 8.126-3.167v0c0.371 0.588 0.556 1.005 0.555 1.249v0c-0.001 0.424-0.293 0.852-0.876 1.285v0l-0.262 0.165c-1.557 0.46-3.577 1.155-6.06 2.085v0c-4.89 1.836-8.299 3.04-10.226 3.611z" fill="#0080ff" data-fill-palette-color="primary"></path><path d="M118.6 5.916v0l-3.385 0.616c-0.877 0.181-1.877 0.48-3 0.895v0c0.15 0.996 0.312 2.288 0.486 3.876v0c0.621 5.652 1.102 9.3 1.442 10.946 0.342 1.652 0.607 2.814 0.795 3.485v0l-3.496 0.998-2.688-18.905-8.144 1.222c-0.196 0.04-0.385-0.093-0.568-0.4-0.182-0.3-0.302-0.592-0.36-0.874-0.057-0.276-0.005-0.6 0.158-0.972 0.154-0.376 0.383-0.596 0.686-0.659v0c1.858-0.3 3.735-0.555 5.632-0.765v0c3.507-0.416 6.471-0.875 8.892-1.376v0l2.322-0.554c1.831-0.428 3.617-1.009 5.357-1.742v0c0.42-0.01 0.8 0.569 1.14 1.737v0c0.079 0.244 0.134 0.443 0.166 0.599v0c-1.56 0.822-3.371 1.447-5.435 1.873z" fill="#0080ff" data-fill-palette-color="primary"></path><path d="M148.717 8.921v0c-1.09-0.759-2.482-1.128-4.176-1.108v0c-1.597 0.019-3.071 0.332-4.42 0.94v0c-2.563 1.111-4.309 2.519-5.24 4.224v0c-0.404 0.776-0.601 1.601-0.59 2.476v0c0.002 0.158 0.007 0.589 0.015 1.291 0.008 0.709 0.15 1.661 0.426 2.856 0.269 1.188 0.41 2.399 0.424 3.631v0c-0.544 0.034-0.98 0.104-1.309 0.212-0.336 0.107-0.618 0.162-0.845 0.165-0.234 0.003-0.435-0.098-0.603-0.303-0.168-0.205-0.358-0.602-0.572-1.192v0c-0.029-0.151-0.086-0.588-0.17-1.31-0.084-0.715-0.191-1.585-0.32-2.609-0.129-1.031-0.273-2.156-0.432-3.373-0.152-1.217-0.3-2.417-0.445-3.6v0c-0.312-2.572-0.551-4.459-0.717-5.662v0c-0.007-0.62 0.44-0.935 1.342-0.946v0c0.537-0.006 0.963 0.216 1.279 0.667 0.315 0.444 0.566 0.954 0.751 1.53 0.186 0.576 0.313 1.146 0.382 1.711 0.069 0.564 0.132 0.963 0.189 1.196v0c3.359-3.076 7.559-4.644 12.599-4.703v0c0.565-0.007 1.153 0 1.767 0.02v0c0.158-0.029 0.351-0.045 0.578-0.048 0.234-0.003 0.47 0.149 0.707 0.457v0c0.286 0.355 0.433 0.79 0.439 1.307v0c0.015 1.288-0.338 2.011-1.059 2.171z" fill="#0080ff" data-fill-palette-color="primary"></path><path d="M168.727 19.682v0c-2.418 2.664-5.272 4.074-8.562 4.232v0c-0.76 0.029-1.438-0.008-2.036-0.111-0.59-0.102-1.081-0.194-1.472-0.276-0.391-0.082-0.819-0.215-1.283-0.4-0.464-0.185-0.88-0.425-1.249-0.719v0c-0.844-0.698-1.182-1.529-1.015-2.492v0c-0.023-0.472 0.015-0.993 0.113-1.564 0.099-0.57 0.358-1.301 0.778-2.192 0.413-0.893 1.05-1.828 1.91-2.804 0.86-0.969 1.85-1.829 2.972-2.578v0c2.335-1.581 4.714-2.448 7.138-2.602v0c0.711-0.031 1.352 0.003 1.922 0.102 0.57 0.099 1.076 0.225 1.517 0.378v0c1.472 0.255 2.287 1.426 2.443 3.515v0c0.113 1.326 0.004 3.128-0.327 5.404-0.324 2.278-0.562 4.036-0.714 5.275-0.151 1.239-0.186 2.389-0.104 3.452v0l-2.249-0.389c0.017-0.703 0.048-1.327 0.093-1.871 0.044-0.537 0.078-1.038 0.102-1.502v0c0.055-1.088 0.063-2.04 0.023-2.858zM169.594 13.763v0c0.254-1.466-0.342-2.323-1.788-2.574v0c-0.172-0.058-0.346-0.102-0.522-0.132v0c-1.846-0.319-3.95 0.229-6.312 1.644v0c-1.104 0.648-2.087 1.418-2.947 2.31v0c-1.261 1.27-1.99 2.476-2.187 3.616v0c-0.258 1.493 0.45 2.531 2.124 3.113v0c2.289 0.34 4.647-0.325 7.075-1.994v0c1.041-0.728 1.944-1.561 2.706-2.498v0c1.049-1.258 1.666-2.42 1.851-3.485z" fill="#0080ff" data-fill-palette-color="primary"></path><path d="M189.676 26.707l0.828-2.205c1.025-2.881 1.619-5.055 1.784-6.524v0c0.324-0.294 0.1-0.578-0.672-0.853v0c-0.824-0.293-1.964-0.468-3.42-0.526-1.452-0.049-2.662-0.015-3.631 0.1v0c-2.303 0.248-3.72 0.781-4.254 1.6v0l-3.517 9.888-2.443-0.869c-0.018-0.935 0.65-3.306 2.005-7.115v0c1.205-3.387 2.157-5.858 2.857-7.414 0.704-1.548 1.131-2.419 1.281-2.614v0c0.775-0.185 1.357-0.208 1.746-0.07v0c0.603 0.215 0.651 1.036 0.143 2.463v0c-0.198 0.558-0.419 1.086-0.662 1.584-0.245 0.505-0.401 0.851-0.468 1.04v0c4.95-1.484 8.502-1.843 10.655-1.077v0c2.446 0.87 3.135 3.341 2.067 7.412v0c-0.342 1.435-0.949 3.375-1.819 5.821v0l-1.06 2.857c-0.379 1.064-0.722 2.1-1.03 3.109v0c-0.291 0.057-0.508 0.061-0.65 0.01v0c-0.064-0.045-0.211-0.137-0.439-0.277-0.224-0.131-0.526-0.278-0.906-0.443v0c0.104-1.052 0.322-2.086 0.654-3.1 0.332-1.015 0.649-1.947 0.951-2.797z" fill="#0080ff" data-fill-palette-color="primary"></path><path d="M209.316 32.702v0c2.462 1.396 3.338 2.72 2.629 3.971v0c-0.533 0.94-1.838 1.65-3.913 2.127v0c-3.09 0.702-6.672 0.634-10.749-0.204v0c-0.156-0.088-0.241-0.343-0.256-0.763-0.015-0.42-0.023-0.741-0.024-0.963-0.007-0.225-0.02-0.376-0.041-0.451v0c3.058 0.61 5.755 0.781 8.091 0.515v0c1.579-0.174 2.514-0.518 2.806-1.034 0.289-0.509-0.229-1.139-1.553-1.889-1.318-0.747-3.429-1.533-6.334-2.356v0c-1.138-0.701-1.91-1.685-2.316-2.952v0c-0.343-1.113-0.316-2.019 0.081-2.72 0.401-0.707 0.97-1.243 1.708-1.609 0.744-0.362 1.597-0.611 2.56-0.745 0.963-0.135 2.011-0.162 3.145-0.081v0c2.787 0.195 5.354 0.958 7.702 2.289v0c0.695 0.394 1.328 0.84 1.901 1.338v0c0.539 0.306 0.719 0.721 0.541 1.245-0.181 0.515-0.575 1.308-1.184 2.381v0c-0.978-1.346-2.294-2.488-3.947-3.426v0c-2.061-1.168-3.996-1.719-5.807-1.653v0c-1.839 0.018-3.151 0.664-3.935 1.936v0c-0.353 0.623-0.072 1.194 0.845 1.714v0l2.606 1.121c2.354 0.749 4.169 1.485 5.444 2.209z" fill="#0080ff" data-fill-palette-color="primary"></path><path d="M223.565 35.996v0c3.466 1.302 6.179 2.766 8.14 4.393v0c2.49 2.067 3.608 4.1 3.354 6.099v0c-0.13 0.922-0.491 1.74-1.085 2.455v0c-0.822 0.991-1.979 1.749-3.471 2.274-1.491 0.535-3.104 0.802-4.84 0.802v0c-4.022-0.027-7.941-1.226-11.755-3.595v0c-0.18 0.217-0.467 0.574-0.862 1.07-0.39 0.491-0.828 1.035-1.315 1.633-0.482 0.602-0.997 1.244-1.545 1.926-0.548 0.682-1.066 1.339-1.555 1.971v0c-1.204 1.569-1.88 2.475-2.029 2.719-0.158 0.245-0.294 0.436-0.408 0.574v0c-0.409 0.493-0.876 0.732-1.401 0.717-0.515-0.016-1.029-0.237-1.543-0.664v0c-0.101-0.084-0.201-0.167-0.302-0.25v0l19.334-24.25c0.386-0.109 0.721-0.033 1.004 0.23 0.279 0.267 0.452 0.545 0.518 0.832 0.061 0.283-0.019 0.637-0.239 1.064zM231.379 44.226v0c-0.38-0.879-0.941-1.627-1.683-2.242-0.742-0.616-1.536-1.158-2.381-1.628v0c-1.922-1.059-3.732-1.375-5.428-0.948v0c-0.782 0.219-1.485 0.705-2.109 1.458v0c-0.066 0.079-0.132 0.159-0.198 0.238v0l-4.261 5.135c4.831 2.471 8.77 3.601 11.816 3.391v0c1.76-0.105 3.052-0.653 3.875-1.644v0c0.871-1.049 0.994-2.303 0.369-3.76z" fill="#0080ff" data-fill-palette-color="primary"></path><path d="M234.315 56.698v0c2.353-1.919 5.077-2.448 8.17-1.585v0c2.451 0.685 4.724 2.066 6.818 4.143v0c0.1 0.123 0.329 0.403 0.685 0.84 0.357 0.438 0.705 1.131 1.044 2.081v0c0.771 2.09 0.694 4.01-0.232 5.761v0c-0.359 0.693-0.733 1.198-1.124 1.516-0.39 0.318-0.673 0.531-0.85 0.64v0c-2.487 2.028-5.218 2.683-8.194 1.965v0c-2.75-0.681-5.198-2.336-7.344-4.967v0c-1.545-1.894-2.271-3.684-2.178-5.368 0.087-1.68 1.156-3.355 3.205-5.026zM235.287 59.344v0c-1.238 1.01-1.808 2.021-1.711 3.034v0c0.085 0.757 0.608 1.726 1.57 2.905 0.957 1.174 1.892 2.135 2.805 2.884 0.913 0.749 1.873 1.294 2.88 1.636v0c2.174 0.715 4.267 0.252 6.279-1.388v0c1.195-0.975 1.911-2.091 2.146-3.35v0c0.251-1.36-0.087-2.608-1.014-3.744v0c-0.774-0.666-1.561-1.326-2.361-1.98-0.804-0.659-1.721-1.151-2.75-1.476v0c-2.208-0.714-4.823-0.221-7.844 1.479z" fill="#0080ff" data-fill-palette-color="primary"></path><path d="M263.543 88.863v0c0.17-1.317-0.144-2.722-0.942-4.216v0c-0.753-1.409-1.711-2.572-2.873-3.489v0c-2.168-1.761-4.222-2.662-6.164-2.701v0c-0.875-0.001-1.698 0.205-2.469 0.617v0c-0.14 0.075-0.519 0.278-1.139 0.609-0.625 0.334-1.405 0.899-2.338 1.695-0.93 0.786-1.939 1.47-3.026 2.051v0c-0.281-0.467-0.545-0.822-0.792-1.064-0.25-0.249-0.429-0.473-0.536-0.674-0.11-0.206-0.113-0.431-0.009-0.675 0.104-0.243 0.369-0.595 0.794-1.056v0c0.121-0.096 0.482-0.347 1.083-0.755 0.596-0.404 1.319-0.9 2.169-1.488 0.856-0.59 1.787-1.236 2.793-1.938 1.01-0.696 2.006-1.381 2.989-2.055v0c2.138-1.463 3.703-2.546 4.694-3.248v0c0.547-0.292 1.032-0.041 1.458 0.755v0c0.253 0.474 0.253 0.954-0.002 1.442-0.249 0.484-0.586 0.942-1.012 1.373-0.426 0.431-0.873 0.806-1.341 1.127-0.469 0.321-0.793 0.561-0.974 0.72v0c4.279 1.562 7.606 4.566 9.983 9.01v0c0.266 0.498 0.532 1.024 0.796 1.578v0c0.099 0.127 0.202 0.29 0.309 0.49 0.11 0.206 0.084 0.486-0.079 0.839v0c-0.183 0.418-0.502 0.748-0.957 0.992v0c-1.136 0.607-1.941 0.628-2.415 0.061z" fill="#0080ff" data-fill-palette-color="primary"></path><path d="M257.933 103.559v0l5.881-1.888c0.928-0.31 1.693-0.659 2.296-1.049v0l-1.893-5.673 2.495-0.909 1.831 5.487 9.445-3.153c0.24 0 0.507 0.074 0.804 0.222v0c0.453 0.226 0.718 0.454 0.794 0.682 0.078 0.235 0.123 0.445 0.134 0.63 0.004 0.187-0.108 0.428-0.336 0.722v0c-1.476 0.928-3.837 1.934-7.084 3.018v0c-0.803 0.268-1.582 0.568-2.335 0.899v0c0.351 0.747 0.657 1.512 0.919 2.296v0c0 0 0.211 0.634 0.635 1.901v0c0.155 0.464 0.324 0.883 0.506 1.257v0l-2.671 0.772-1.639-5.398-12.557 4.398c-0.342-0.372-0.566-0.718-0.673-1.038v0c-0.406-1.215 0.744-2.274 3.448-3.176z" fill="#0080ff" data-fill-palette-color="primary"></path><path d="M7.068 144.229c0-1.784 1.447-3.231 3.231-3.231 1.784 0 3.231 1.447 3.231 3.231 0 1.784-1.447 3.231-3.231 3.231-1.784 0-3.231-1.447-3.231-3.231z" fill="#0080ff" data-fill-palette-color="primary"></path><path d="M267.104 144.229c0-1.784 1.447-3.231 3.231-3.231 1.784 0 3.231 1.447 3.231 3.231 0 1.784-1.447 3.231-3.231 3.231-1.784 0-3.231-1.447-3.231-3.231z" fill="#0080ff" data-fill-palette-color="primary"></path></g><g id="text-1"><path d="M16.474 187.402v0c1.411-0.006 3.905-0.277 7.482-0.812v0c0.155 0.5 0.083 0.811-0.219 0.933v0c-0.09 0.035-0.157 0.063-0.201 0.084-0.039 0.012-0.179 0.038-0.419 0.076-0.245 0.047-0.587 0.107-1.026 0.179-0.441 0.065-0.951 0.141-1.531 0.227-0.585 0.088-1.198 0.171-1.838 0.247v0c-1.504 0.172-2.787 0.268-3.847 0.288v0c-0.287-0.228-0.39-0.441-0.308-0.64v0c0.05-0.095 0.129-0.188 0.238-0.28 0.107-0.098 0.227-0.208 0.363-0.329v0c0.101-0.14 0.397-0.441 0.887-0.903 0.493-0.456 0.884-0.823 1.172-1.1 0.289-0.277 0.557-0.541 0.804-0.791v0c0.543-0.573 0.833-0.998 0.869-1.276v0c-0.535-0.144-1.912-0.271-4.132-0.381v0c-0.389-0.023-0.747-0.038-1.074-0.045-0.329-0.013-0.596-0.027-0.803-0.042v0l-0.19-0.752 5.948-5.117c0.035-0.025 0.073-0.044 0.112-0.056 0.046-0.014 0.093-0.014 0.141 0 0.048 0.014 0.096 0.053 0.144 0.117v0c0.096 0.122 0.164 0.248 0.205 0.38 0.043 0.138 0.047 0.245 0.013 0.32-0.034 0.076-0.086 0.142-0.154 0.199-0.067 0.064-0.146 0.121-0.239 0.172-0.084 0.055-0.191 0.139-0.322 0.252-0.129 0.119-0.322 0.288-0.579 0.504-0.248 0.221-0.514 0.459-0.795 0.713-0.275 0.251-0.55 0.503-0.825 0.754-0.275 0.251-0.526 0.488-0.753 0.71v0c-0.51 0.469-0.791 0.751-0.84 0.845v0c2.561 0.213 4.086 0.363 4.574 0.449 0.493 0.078 0.794 0.132 0.905 0.162v0c0.165 0.043 0.254 0.087 0.268 0.133v0c0.106 0.342-0.478 1.154-1.751 2.438v0c-0.338 0.35-0.662 0.678-0.971 0.983v0c-0.762 0.749-1.198 1.202-1.308 1.359z" fill="#0080ff" data-fill-palette-color="primary"></path><path d="M17.504 193.736v0c0.27 0.678 0.986 1.579 2.146 2.703v0c0.033 0.083 0.032 0.165-0.003 0.245-0.037 0.074-0.094 0.127-0.17 0.157v0c-0.647-0.098-1.292-0.526-1.936-1.285-0.641-0.753-1.016-1.544-1.126-2.375v0c-0.118-0.946 0.157-1.66 0.825-2.142v0c0.139-0.078 0.334-0.167 0.583-0.266 0.243-0.097 0.595-0.163 1.056-0.198 0.454-0.033 0.924 0.032 1.411 0.193 0.49 0.168 0.92 0.419 1.29 0.753 0.377 0.332 0.66 0.734 0.849 1.207v0c0.179 0.448 0.222 1.012 0.13 1.694v0c-0.036 0.318-0.116 0.591-0.24 0.819-0.124 0.227-0.286 0.381-0.484 0.46v0c-0.051 0.02-0.104 0.038-0.157 0.051v0c-0.481 0.17-0.87 0.058-1.168-0.335v0c-0.134-0.169-0.252-0.381-0.354-0.637v0l-0.595-1.686c-0.222-0.556-0.51-0.935-0.864-1.135v0c-0.203-0.119-0.45-0.162-0.74-0.127v0c-0.618 0.476-0.769 1.111-0.453 1.904zM21.905 194.371c0.053-0.221 0.068-0.435 0.045-0.64-0.016-0.208-0.049-0.373-0.097-0.495-0.048-0.122-0.17-0.306-0.366-0.555-0.193-0.242-0.381-0.452-0.563-0.631v0c-0.461-0.431-0.826-0.594-1.095-0.487v0c0.187 0.637 0.342 1.109 0.465 1.416v0c0.342 0.857 0.648 1.41 0.917 1.658v0c0.151 0.155 0.284 0.209 0.399 0.164v0c0.141-0.056 0.239-0.199 0.295-0.43z" fill="#0080ff" data-fill-palette-color="primary"></path><path d="M21.65 205.149v0l-0.244-0.502 2.562-1.364c0.573-0.258 1.078-0.488 1.516-0.691 0.435-0.208 0.824-0.365 1.166-0.468 0.333-0.107 0.642-0.15 0.926-0.13 0.278 0.024 0.55 0.132 0.817 0.325v0c0.487 0.357 1.07 1.174 1.749 2.451v0c0.291 0.547 0.487 1.04 0.588 1.477 0.094 0.441 0.145 0.777 0.151 1.008v0c0.017 0.529-0.16 0.893-0.532 1.09-0.365 0.194-0.751 0.267-1.158 0.22-0.411-0.054-0.812-0.192-1.203-0.413-0.397-0.218-0.775-0.496-1.135-0.835-0.363-0.345-0.699-0.704-1.007-1.079v0c-0.55-0.667-1.009-1.347-1.379-2.039v0l-2.486 1.265c-0.085 0.045-0.196-0.06-0.331-0.315zM25.711 203.525v0c-0.365 0.194-0.463 0.449-0.294 0.765v0c0.023 0.043 0.063 0.119 0.121 0.228 0.064 0.106 0.18 0.294 0.347 0.564 0.164 0.264 0.356 0.536 0.576 0.817 0.217 0.275 0.451 0.548 0.705 0.818 0.256 0.261 0.518 0.481 0.784 0.66v0c0.605 0.403 1.147 0.477 1.627 0.221v0c0.416-0.362 0.487-0.961 0.213-1.798v0c-0.077-0.248-0.164-0.462-0.262-0.645-0.094-0.176-0.216-0.384-0.367-0.624-0.148-0.233-0.356-0.485-0.624-0.755-0.263-0.274-0.536-0.479-0.82-0.617-0.275-0.135-0.523-0.154-0.746-0.059v0c-0.098 0.036-0.211 0.073-0.339 0.11v0c-0.425 0.109-0.732 0.214-0.921 0.315z" fill="#0080ff" data-fill-palette-color="primary"></path><path d="M32.811 215.379v0c0.03-0.423-0.101-0.869-0.391-1.338v0c-0.272-0.439-0.606-0.795-1.002-1.068v0c-0.737-0.524-1.417-0.771-2.038-0.743v0c-0.289 0.017-0.554 0.1-0.794 0.249v0c-0.041 0.025-0.158 0.098-0.351 0.217-0.193 0.12-0.432 0.316-0.717 0.59-0.281 0.279-0.591 0.524-0.93 0.733v0c-0.106-0.145-0.198-0.254-0.276-0.327-0.087-0.076-0.151-0.146-0.191-0.21-0.04-0.064-0.048-0.136-0.024-0.216 0.03-0.083 0.11-0.202 0.241-0.356v0c0.037-0.031 0.148-0.12 0.333-0.266 0.185-0.147 0.408-0.322 0.672-0.525 0.259-0.209 0.548-0.436 0.865-0.682 0.308-0.248 0.613-0.489 0.913-0.723v0c0.661-0.515 1.146-0.896 1.455-1.143v0c0.17-0.105 0.331-0.035 0.483 0.211v0c0.091 0.146 0.102 0.302 0.033 0.465-0.072 0.158-0.174 0.314-0.306 0.469-0.129 0.145-0.264 0.273-0.405 0.384-0.147 0.115-0.248 0.202-0.301 0.26v0c1.414 0.413 2.548 1.31 3.403 2.691v0c0.098 0.158 0.196 0.324 0.296 0.498v0c0.031 0.037 0.067 0.088 0.106 0.152 0.04 0.064 0.036 0.156-0.012 0.275v0c-0.052 0.138-0.149 0.25-0.289 0.337v0c-0.351 0.217-0.609 0.239-0.773 0.066z" fill="#0080ff" data-fill-palette-color="primary"></path><path d="M32.125 218.275v0c0.805-0.568 1.696-0.678 2.674-0.331v0c0.777 0.278 1.477 0.774 2.1 1.49v0c0.032 0.045 0.099 0.141 0.202 0.286 0.107 0.152 0.203 0.383 0.288 0.695v0c0.207 0.688 0.142 1.307-0.195 1.856v0c-0.136 0.214-0.271 0.368-0.406 0.464-0.129 0.091-0.224 0.154-0.285 0.188v0c-0.85 0.599-1.748 0.748-2.693 0.446v0c-0.865-0.283-1.613-0.872-2.245-1.766v0c-0.456-0.647-0.653-1.242-0.588-1.785 0.068-0.537 0.451-1.051 1.148-1.543zM32.375 219.148v0c-0.416 0.294-0.621 0.607-0.615 0.939v0c0.012 0.244 0.159 0.566 0.441 0.966 0.286 0.405 0.567 0.738 0.843 0.998 0.271 0.264 0.565 0.461 0.884 0.59v0c0.688 0.282 1.375 0.181 2.061-0.304v0c0.405-0.286 0.66-0.63 0.764-1.031v0c0.115-0.435 0.035-0.846-0.239-1.235v0c-0.237-0.229-0.474-0.458-0.711-0.686-0.247-0.23-0.532-0.408-0.857-0.534v0c-0.697-0.284-1.554-0.185-2.571 0.297z" fill="#0080ff" data-fill-palette-color="primary"></path><path d="M38.628 223.099v0c0.024-0.037 0.057-0.072 0.1-0.106 0.043-0.034 0.112-0.063 0.208-0.088 0.096-0.024 0.196-0.025 0.302-0.003 0.101 0.016 0.179 0.064 0.233 0.144 0.06 0.075 0.062 0.171 0.005 0.287v0l-1.731 4.07c0.124-0.011 0.336-0.044 0.635-0.099 0.3-0.055 0.64-0.115 1.02-0.18 0.385-0.07 0.787-0.14 1.207-0.211 0.41-0.072 0.792-0.135 1.145-0.189v0c0.803-0.131 1.229-0.167 1.276-0.108v0c0.108 0.134 0.134 0.272 0.079 0.413-0.051 0.146-0.1 0.239-0.149 0.278-0.054 0.043-0.091 0.073-0.112 0.09v0c-1.083 0.267-2.08 0.513-2.993 0.74-0.917 0.231-1.514 0.373-1.789 0.426-0.281 0.057-0.51 0.095-0.689 0.114v0c-0.311 0.019-0.518-0.036-0.621-0.165-0.103-0.129-0.119-0.359-0.048-0.688 0.067-0.336 0.186-0.748 0.358-1.239v0c0.323-0.875 0.844-2.037 1.564-3.486z" fill="#0080ff" data-fill-palette-color="primary"></path><path d="M44.207 228.317l0.514 0.593c-1.098 1.098-2.395 2.346-3.891 3.742v0c-0.229 0.135-0.459 0.07-0.689-0.195v0c-0.059-0.068-0.104-0.151-0.136-0.251-0.037-0.095-0.039-0.176-0.004-0.242v0zM45.251 226.919v0c0.219-0.189 0.438-0.157 0.66 0.098v0c0.149 0.172 0.232 0.346 0.248 0.523v0c-0.054 0.074-0.115 0.141-0.183 0.2-0.062 0.054-0.145 0.085-0.248 0.092v0c-0.108 0.002-0.204-0.046-0.29-0.145-0.09-0.104-0.155-0.226-0.193-0.366-0.039-0.139-0.037-0.274 0.006-0.402z" fill="#0080ff" data-fill-palette-color="primary"></path><path d="M52.807 231.51c-0.578 0.542-1.161 1.057-1.752 1.544-0.585 0.483-1.156 0.962-1.712 1.436-0.561 0.469-1.14 0.984-1.737 1.545-0.598 0.561-1.188 1.195-1.771 1.902v0c-0.141 0.132-0.265 0.201-0.372 0.208-0.107 0.006-0.218-0.051-0.33-0.172v0c-0.269-0.286-0.167-0.651 0.305-1.093v0l0.301-0.283c-1.448-0.256-2.453-0.682-3.013-1.28v0c-0.221-0.236-0.39-0.531-0.506-0.886-0.115-0.354-0.099-0.805 0.051-1.35v0c0.117-0.167 0.251-0.321 0.402-0.462 0.151-0.141 0.36-0.286 0.627-0.433 0.272-0.142 0.607-0.234 1.003-0.275 0.401-0.036 0.809-0.008 1.225 0.083v0c0.895 0.209 1.646 0.637 2.253 1.285v0c0.264 0.281 0.471 0.587 0.622 0.918v0c0.11-0.104 0.311-0.278 0.601-0.521 0.285-0.239 0.588-0.49 0.908-0.753v0c0.821-0.705 1.312-1.118 1.472-1.24 0.15-0.122 0.285-0.22 0.404-0.294 0.119-0.074 0.235-0.122 0.348-0.142v0c0.235-0.051 0.459 0.037 0.671 0.262zM43.37 233.211v0c-0.482 0.452-0.561 0.852-0.236 1.198v0c0.052 0.055 0.116 0.108 0.193 0.16v0c0.231 0.246 0.591 0.484 1.08 0.714v0c0.921 0.439 1.553 0.639 1.896 0.601v0l1.205-1.131c0.216-0.203 0.161-0.477-0.164-0.823v0c-0.037-0.05-0.087-0.107-0.148-0.173-0.066-0.07-0.182-0.164-0.349-0.282-0.167-0.117-0.378-0.231-0.632-0.341-0.25-0.105-0.515-0.192-0.796-0.259v0c-0.59-0.136-1.119-0.116-1.587 0.059v0c-0.177 0.063-0.331 0.155-0.462 0.277z" fill="#0080ff" data-fill-palette-color="primary"></path><path d="M49.123 240.631v0c0.529 0.503 1.555 1.022 3.079 1.558v0c0.065 0.062 0.098 0.136 0.101 0.224-0.003 0.083-0.033 0.154-0.089 0.214v0c-0.629 0.182-1.394 0.062-2.296-0.358-0.897-0.416-1.569-0.978-2.016-1.688v0c-0.503-0.81-0.551-1.574-0.146-2.29v0c0.094-0.129 0.234-0.291 0.419-0.486 0.18-0.19 0.472-0.397 0.875-0.621 0.399-0.22 0.853-0.358 1.363-0.415 0.515-0.052 1.011-0.004 1.487 0.145 0.481 0.144 0.906 0.391 1.276 0.742v0c0.349 0.332 0.625 0.827 0.827 1.484v0c0.1 0.304 0.142 0.586 0.123 0.845-0.018 0.259-0.1 0.465-0.247 0.62v0c-0.038 0.04-0.078 0.077-0.121 0.112v0c-0.366 0.355-0.766 0.416-1.201 0.184v0c-0.192-0.097-0.388-0.241-0.588-0.43v0l-1.246-1.284c-0.434-0.413-0.854-0.636-1.259-0.669v0c-0.234-0.023-0.476 0.041-0.725 0.194v0c-0.362 0.691-0.234 1.331 0.384 1.919zM53.387 239.368c-0.045-0.223-0.12-0.423-0.227-0.601-0.102-0.182-0.201-0.319-0.295-0.409-0.095-0.09-0.283-0.207-0.564-0.351-0.276-0.139-0.535-0.252-0.776-0.338v0c-0.599-0.199-0.999-0.194-1.198 0.016v0c0.436 0.5 0.774 0.864 1.014 1.092v0c0.669 0.636 1.178 1.01 1.527 1.123v0c0.202 0.078 0.345 0.072 0.43-0.018v0c0.104-0.11 0.134-0.281 0.089-0.514z" fill="#0080ff" data-fill-palette-color="primary"></path><path d="M65.429 247.435v0l-0.877-0.69c-0.231-0.175-0.516-0.356-0.857-0.545v0c-0.206 0.25-0.485 0.566-0.834 0.948v0c-1.248 1.352-2.037 2.245-2.366 2.679-0.328 0.434-0.553 0.747-0.673 0.941v0l-0.989-0.645 4.029-4.671-2.023-1.726c-0.055-0.042-0.066-0.119-0.032-0.231 0.035-0.103 0.081-0.193 0.14-0.27 0.054-0.071 0.145-0.128 0.272-0.17 0.123-0.037 0.223-0.026 0.299 0.032v0c0.471 0.382 0.934 0.785 1.391 1.209v0c0.848 0.763 1.59 1.385 2.226 1.867v0l0.631 0.451c0.491 0.355 1.011 0.666 1.559 0.935v0c0.092 0.095 0.033 0.31-0.176 0.644v0c-0.044 0.07-0.081 0.124-0.111 0.163v0c-0.529-0.202-1.066-0.509-1.609-0.921z" fill="#0080ff" data-fill-palette-color="primary"></path><path d="M69.272 257.302v0c-0.143 0.078-0.344 0.031-0.602-0.14-0.258-0.172-0.324-0.353-0.197-0.542v0c0.543-0.813 0.9-1.386 1.072-1.718v0c0.384-0.712 0.491-1.158 0.321-1.338v0c-0.433-0.43-0.808-0.75-1.122-0.96-0.315-0.21-0.639-0.29-0.971-0.238-0.327 0.055-0.691 0.267-1.095 0.635-0.403 0.368-0.893 0.935-1.47 1.701v0l-0.799-0.533c0.275-0.388 0.526-0.75 0.751-1.088 0.229-0.344 0.493-0.751 0.791-1.223 0.296-0.481 0.619-1.002 0.969-1.564v0c0.39-0.659 0.732-1.209 1.026-1.649 0.294-0.441 0.588-0.825 0.88-1.152v0c0.157-0.086 0.301-0.085 0.433 0.003v0c0.16 0.107 0.25 0.246 0.269 0.416 0.015 0.176-0.005 0.311-0.061 0.407v0l-1.192 1.675c-0.432 0.647-0.721 1.149-0.869 1.506v0c0.894 0 1.673 0.222 2.338 0.666v0c0.218 0.145 0.435 0.315 0.653 0.51v0c0.336 0.613 0.483 1.125 0.44 1.536v0c-0.033 0.21-0.097 0.412-0.192 0.604-0.096 0.193-0.217 0.406-0.364 0.639v0c-0.487 0.817-0.824 1.433-1.009 1.847z" fill="#0080ff" data-fill-palette-color="primary"></path><path d="M73.054 258.743v0c0.629 0.37 1.746 0.645 3.352 0.823v0c0.077 0.045 0.127 0.111 0.148 0.195 0.016 0.081 0.003 0.158-0.039 0.229v0c-0.571 0.319-1.344 0.375-2.317 0.17-0.968-0.202-1.749-0.599-2.345-1.189v0c-0.673-0.676-0.892-1.409-0.659-2.199v0c0.063-0.147 0.162-0.336 0.298-0.567 0.133-0.225 0.37-0.493 0.713-0.803 0.339-0.304 0.75-0.541 1.234-0.712 0.49-0.167 0.984-0.232 1.482-0.194 0.501 0.031 0.971 0.176 1.41 0.435v0c0.415 0.245 0.795 0.664 1.14 1.259v0c0.166 0.274 0.27 0.539 0.311 0.794 0.041 0.256 0.007 0.476-0.101 0.66v0c-0.028 0.047-0.059 0.093-0.092 0.137v0c-0.276 0.429-0.653 0.579-1.129 0.451v0c-0.209-0.051-0.433-0.147-0.67-0.287v0l-1.503-0.969c-0.516-0.304-0.975-0.427-1.378-0.368v0c-0.234 0.03-0.455 0.148-0.663 0.352v0c-0.197 0.755 0.072 1.349 0.808 1.783zM76.923 256.55c-0.094-0.207-0.213-0.385-0.357-0.534-0.141-0.155-0.267-0.265-0.38-0.331-0.113-0.066-0.322-0.138-0.629-0.215-0.301-0.073-0.578-0.125-0.832-0.154v0c-0.629-0.059-1.017 0.037-1.163 0.285v0c0.538 0.389 0.95 0.667 1.234 0.835v0c0.795 0.468 1.375 0.718 1.741 0.75v0c0.214 0.03 0.352-0.008 0.415-0.115v0c0.077-0.131 0.067-0.304-0.029-0.521z" fill="#0080ff" data-fill-palette-color="primary"></path><path d="M86.501 257.55v0c0.619 0.133 1.178 0.309 1.675 0.531 0.503 0.224 0.942 0.442 1.315 0.653 0.38 0.214 0.74 0.462 1.083 0.742v0c0.733 0.605 1.107 1.153 1.123 1.642v0c0.017 0.113 0.001 0.227-0.05 0.34v0c-0.148 0.333-0.602 0.565-1.36 0.694v0c-0.505 0.084-1.175 0.099-2.01 0.044v0c1.723 0.888 2.807 1.679 3.251 2.374v0c0.254 0.377 0.316 0.713 0.184 1.009v0c-0.182 0.409-0.66 0.705-1.435 0.888v0c-0.839 0.192-1.819 0.226-2.941 0.104v0c-1.032-0.12-1.935-0.352-2.708-0.697v0c-0.591-0.263-1.063-0.575-1.416-0.935v0c0.206-0.496 0.411-1.008 0.616-1.535v0c0.453-1.17 0.855-2.148 1.204-2.935 0.35-0.786 0.739-1.593 1.168-2.42v0c-0.082-0.036-0.153-0.079-0.214-0.129-0.061-0.05-0.062-0.141-0.003-0.273v0c0.081-0.182 0.254-0.215 0.518-0.097zM85.404 262.048l-0.907 2.773c1.251 0.474 2.319 0.776 3.204 0.906 0.881 0.121 1.552 0.129 2.012 0.025 0.464-0.11 0.75-0.288 0.859-0.533v0c0.14-0.315 0.027-0.67-0.339-1.067v0c-0.41-0.416-1.024-0.806-1.842-1.17-0.812-0.361-1.807-0.673-2.987-0.934zM88.335 259.045v0l-0.283-0.126c-0.623-0.277-1-0.37-1.132-0.278v0l-1.134 2.243c0.686 0.305 1.589 0.511 2.71 0.618v0c0.74 0.065 1.316 0.032 1.729-0.101v0c0.213-0.071 0.351-0.179 0.416-0.323 0.064-0.145 0.064-0.288-0.001-0.43-0.071-0.145-0.178-0.286-0.32-0.425-0.142-0.139-0.31-0.27-0.503-0.394-0.2-0.127-0.393-0.243-0.579-0.348v0c-0.294-0.153-0.594-0.299-0.903-0.436z" fill="#0080ff" data-fill-palette-color="primary"></path><path d="M94.661 269.01v0c0.685 0.251 1.834 0.32 3.445 0.206v0c0.084 0.031 0.145 0.086 0.181 0.165 0.03 0.077 0.031 0.154 0.003 0.232v0c-0.505 0.417-1.254 0.611-2.249 0.584-0.988-0.025-1.828-0.274-2.52-0.747v0c-0.784-0.544-1.132-1.225-1.045-2.043v0c0.035-0.156 0.099-0.36 0.191-0.612 0.09-0.246 0.275-0.552 0.557-0.918 0.279-0.36 0.64-0.667 1.085-0.923 0.452-0.253 0.926-0.405 1.422-0.458 0.498-0.059 0.987-0.002 1.466 0.174v0c0.453 0.166 0.902 0.51 1.348 1.033v0c0.213 0.239 0.363 0.481 0.449 0.725 0.087 0.244 0.093 0.467 0.02 0.667v0c-0.019 0.052-0.041 0.102-0.066 0.152v0c-0.195 0.471-0.538 0.687-1.029 0.646v0c-0.215-0.013-0.452-0.067-0.711-0.161v0l-1.653-0.683c-0.563-0.206-1.036-0.244-1.421-0.113v0c-0.224 0.072-0.421 0.227-0.589 0.466v0c-0.058 0.778 0.314 1.314 1.116 1.608zM98.071 266.156c-0.13-0.187-0.279-0.34-0.447-0.461-0.166-0.127-0.311-0.213-0.434-0.258-0.123-0.045-0.342-0.078-0.657-0.097-0.309-0.018-0.591-0.018-0.846-0.002v0c-0.629 0.056-0.993 0.219-1.093 0.491v0c0.599 0.286 1.054 0.485 1.365 0.598v0c0.866 0.317 1.482 0.458 1.847 0.424v0c0.216-0.009 0.345-0.072 0.387-0.188v0c0.052-0.142 0.011-0.311-0.122-0.507z" fill="#0080ff" data-fill-palette-color="primary"></path><path d="M104.422 269.771v0c0.877 0.265 1.248 0.618 1.115 1.06v0c-0.102 0.336-0.46 0.652-1.075 0.949v0c-0.926 0.446-2.062 0.682-3.407 0.707v0c-0.059-0.018-0.105-0.093-0.138-0.225-0.032-0.132-0.059-0.234-0.08-0.305-0.015-0.069-0.027-0.113-0.036-0.13v0c1.001-0.028 1.863-0.167 2.586-0.416v0c0.483-0.17 0.753-0.348 0.808-0.532 0.054-0.178-0.153-0.338-0.621-0.479-0.468-0.142-1.19-0.241-2.165-0.299v0c-0.411-0.139-0.727-0.392-0.946-0.761v0c-0.181-0.328-0.234-0.618-0.159-0.868 0.076-0.25 0.215-0.46 0.417-0.629 0.209-0.167 0.459-0.304 0.75-0.41 0.293-0.113 0.624-0.196 0.993-0.25v0c0.891-0.141 1.756-0.084 2.593 0.169v0c0.244 0.074 0.474 0.169 0.691 0.284v0c0.191 0.058 0.277 0.177 0.258 0.359-0.017 0.175-0.083 0.453-0.199 0.836v0c-0.402-0.359-0.9-0.628-1.493-0.808v0c-0.732-0.221-1.38-0.255-1.944-0.102v0c-0.582 0.141-0.949 0.44-1.102 0.897v0c-0.066 0.218 0.063 0.375 0.386 0.472v0l0.897 0.174c0.799 0.069 1.423 0.171 1.871 0.307z" fill="#0080ff" data-fill-palette-color="primary"></path><path d="M108.624 272.977v0l0.497-1.931c0.076-0.308 0.114-0.578 0.114-0.812v0l-1.875-0.461 0.174-0.84 1.816 0.446 0.767-3.119c0.045-0.067 0.113-0.128 0.205-0.183v0c0.142-0.086 0.249-0.12 0.323-0.102 0.08 0.02 0.145 0.043 0.195 0.07 0.055 0.035 0.101 0.106 0.139 0.214v0c0.002 0.568-0.129 1.39-0.394 2.467v0c-0.064 0.261-0.118 0.524-0.163 0.79v0c0.269 0.031 0.531 0.077 0.785 0.14v0c0 0 0.211 0.052 0.632 0.155v0c0.154 0.038 0.299 0.067 0.436 0.086v0l-0.255 0.863-1.752-0.485-0.967 4.188c-0.164 0.031-0.299 0.033-0.406 0.006v0c-0.401-0.099-0.492-0.596-0.271-1.492z" fill="#0080ff" data-fill-palette-color="primary"></path><path d="M118.47 275.141c0.021-0.15 0.104-0.274 0.25-0.372 0.147-0.105 0.258-0.176 0.332-0.214 0.074-0.031 0.126-0.059 0.158-0.083v0c-0.064 0.756 0.388 1.202 1.356 1.337v0c0.764 0.107 1.691-0.007 2.781-0.341v0c0.769-0.226 1.303-0.496 1.604-0.809v0c0.097-0.098 0.15-0.181 0.16-0.248 0.01-0.068 0.004-0.125-0.018-0.17v0l-4.964-1.872c-0.146-0.048-0.28-0.136-0.401-0.265v0c-0.233-0.22-0.34-0.402-0.32-0.545v0c0.08-0.573 0.558-1.031 1.433-1.374v0c0.957-0.381 2.2-0.593 3.729-0.637v0c0.343-0.015 0.596-0.014 0.761 0.002v0c0.046 0.02 0.122 0.045 0.23 0.074 0.1 0.028 0.2 0.063 0.298 0.104v0c0.252 0.091 0.346 0.212 0.283 0.363v0c-0.039 0.28-0.605 0.426-1.699 0.44v0c-1.413 0.011-2.3 0.064-2.661 0.16-0.36 0.089-0.629 0.197-0.807 0.326-0.171 0.129-0.274 0.295-0.309 0.499v0c-0.006 0.041 0.084 0.099 0.268 0.173 0.177 0.08 0.393 0.173 0.649 0.278 0.256 0.105 0.585 0.245 0.984 0.419v0c0.984 0.423 2.186 0.952 3.606 1.589v0c0.057 0.189 0.075 0.362 0.053 0.518v0c-0.061 0.436-0.376 0.824-0.945 1.162v0c-0.636 0.37-1.487 0.64-2.554 0.811v0c-0.881 0.134-1.574 0.166-2.078 0.095v0c-0.416-0.058-0.804-0.189-1.165-0.392-0.355-0.196-0.618-0.378-0.789-0.548-0.172-0.163-0.247-0.323-0.225-0.48z" fill="#0080ff" data-fill-palette-color="primary"></path><path d="M128.1 275.11v0c0.073-0.982 0.554-1.74 1.444-2.275v0c0.708-0.424 1.536-0.649 2.484-0.675v0c0.055 0.004 0.172 0.013 0.35 0.026 0.185 0.014 0.425 0.087 0.719 0.219v0c0.663 0.277 1.1 0.721 1.31 1.331v0c0.079 0.241 0.112 0.443 0.099 0.608-0.012 0.158-0.024 0.271-0.035 0.339v0c-0.077 1.037-0.533 1.825-1.367 2.363v0c-0.768 0.488-1.698 0.692-2.79 0.611v0c-0.79-0.059-1.374-0.285-1.752-0.68-0.371-0.394-0.525-1.016-0.462-1.867zM128.933 275.472v0c-0.038 0.508 0.074 0.865 0.335 1.071v0c0.196 0.146 0.538 0.237 1.025 0.273 0.494 0.037 0.93 0.031 1.307-0.016 0.376-0.041 0.715-0.144 1.017-0.308v0c0.655-0.352 1.013-0.947 1.075-1.784v0c0.037-0.494-0.067-0.91-0.311-1.246v0c-0.263-0.365-0.631-0.565-1.105-0.6v0c-0.327 0.038-0.655 0.076-0.982 0.114-0.335 0.044-0.653 0.152-0.956 0.322v0c-0.662 0.358-1.13 1.083-1.405 2.174z" fill="#0080ff" data-fill-palette-color="primary"></path><path d="M136.103 273.156c0.001-0.455-0.004-0.858-0.013-1.209-0.003-0.351-0.004-0.613-0.006-0.786 0.006-0.172-0.047-0.591-0.156-1.255v0c0.072-0.101 0.147-0.195 0.226-0.282 0.072-0.087 0.173-0.129 0.304-0.125v0c0.296 0.009 0.48 1.242 0.553 3.697v0c0.044 1.421 0.043 2.843-0.002 4.268v0c-0.012 0.379-0.287 0.559-0.823 0.542v0l-0.093-0.014c0.014-0.434 0.018-0.988 0.012-1.663-0.006-0.668-0.005-1.254 0.005-1.757 0.002-0.496 0-0.968-0.007-1.416z" fill="#0080ff" data-fill-palette-color="primary"></path><path d="M138.608 276.381v0c-0.001-0.131-0.013-0.313-0.035-0.548-0.022-0.241-0.045-0.502-0.068-0.784-0.016-0.282-0.025-0.568-0.027-0.857-0.002-0.289 0.02-0.554 0.067-0.796v0c0.106-0.545 0.328-0.818 0.665-0.821v0c0.235 0.067 0.39 0.149 0.467 0.244 0.083 0.103 0.126 0.226 0.126 0.371 0.001 0.145-0.035 0.327-0.109 0.549v0c-0.27 0.725-0.403 1.377-0.399 1.955v0c0.001 0.193 0.017 0.396 0.046 0.609v0c0.135 0.557 0.595 0.832 1.38 0.826v0c0.406-0.003 0.791-0.075 1.155-0.215v0c0.694-0.267 1.163-0.577 1.409-0.93v0c0.073-0.379 0.108-0.714 0.106-1.002-0.002-0.282-0.014-0.537-0.037-0.765-0.022-0.227-0.048-0.475-0.078-0.743-0.03-0.268-0.049-0.564-0.058-0.888v0c0.103-0.049 0.206-0.074 0.309-0.074 0.11-0.001 0.221 0.05 0.332 0.152 0.111 0.109 0.209 0.312 0.294 0.608 0.078 0.302 0.132 0.653 0.162 1.052 0.024 0.406 0.041 0.826 0.051 1.26 0.01 0.434 0.017 0.85 0.02 1.249 0.003 0.406 0.019 0.754 0.049 1.043v0c-0.096 0.09-0.188 0.136-0.278 0.137v0c-0.337 0.003-0.588-0.326-0.751-0.986v0c-0.103 0.09-0.284 0.202-0.545 0.334v0c-0.542 0.307-1.188 0.512-1.937 0.614v0c-0.144 0.022-0.303 0.033-0.475 0.034-0.172 0.001-0.389-0.032-0.652-0.098-0.262-0.067-0.511-0.22-0.747-0.459-0.236-0.239-0.383-0.596-0.442-1.071z" fill="#0080ff" data-fill-palette-color="primary"></path><path d="M147.952 276.619v0l-0.098-1.991c-0.019-0.316-0.062-0.586-0.131-0.81v0l-1.928 0.115-0.082-0.854 1.867-0.111-0.191-3.206c0.023-0.077 0.07-0.156 0.141-0.237v0c0.11-0.124 0.203-0.188 0.278-0.192 0.082-0.005 0.152-0.002 0.208 0.008 0.063 0.017 0.128 0.072 0.196 0.165v0c0.17 0.542 0.288 1.366 0.354 2.472v0c0.016 0.268 0.042 0.536 0.079 0.803v0c0.266-0.05 0.53-0.083 0.79-0.099v0c0 0 0.217-0.013 0.65-0.039v0c0.158-0.009 0.305-0.025 0.442-0.047v0l0.012 0.9-1.817 0.056 0.316 4.286c-0.147 0.078-0.276 0.12-0.385 0.126v0c-0.412 0.025-0.646-0.424-0.701-1.345z" fill="#0080ff" data-fill-palette-color="primary"></path><path d="M152.009 271.664l0.781-0.072c0.253 1.533 0.511 3.314 0.775 5.343v0c-0.024 0.265-0.211 0.414-0.56 0.446v0c-0.089 0.008-0.184-0.004-0.283-0.036-0.099-0.025-0.166-0.071-0.2-0.137v0zM151.481 270.002v0c-0.027-0.288 0.128-0.448 0.464-0.479v0c0.226-0.021 0.416 0.013 0.57 0.103v0c0.029 0.087 0.047 0.175 0.056 0.264 0.008 0.082-0.016 0.167-0.07 0.256v0c-0.061 0.089-0.157 0.139-0.287 0.151-0.137 0.013-0.274-0.006-0.41-0.056-0.136-0.05-0.244-0.13-0.323-0.239z" fill="#0080ff" data-fill-palette-color="primary"></path><path d="M155.078 274.845v0c-0.13-0.976 0.185-1.817 0.946-2.522v0c0.606-0.56 1.371-0.95 2.293-1.17v0c0.055-0.007 0.171-0.023 0.348-0.047 0.184-0.025 0.434-0.002 0.749 0.067v0c0.706 0.135 1.224 0.48 1.554 1.033v0c0.126 0.219 0.201 0.411 0.223 0.575 0.021 0.157 0.032 0.27 0.034 0.339v0c0.137 1.031-0.147 1.895-0.853 2.594v0c-0.652 0.636-1.52 1.026-2.605 1.17v0c-0.785 0.105-1.403 0.003-1.854-0.305-0.444-0.309-0.722-0.887-0.835-1.734zM155.967 275.029v0c0.067 0.505 0.25 0.832 0.548 0.98v0c0.222 0.102 0.575 0.121 1.06 0.057 0.491-0.065 0.916-0.16 1.275-0.285 0.359-0.117 0.67-0.287 0.932-0.51v0c0.568-0.479 0.797-1.134 0.686-1.967v0c-0.065-0.491-0.252-0.876-0.56-1.155v0c-0.332-0.303-0.734-0.423-1.204-0.36v0c-0.313 0.104-0.625 0.208-0.938 0.312-0.319 0.112-0.608 0.282-0.87 0.512v0c-0.574 0.486-0.884 1.292-0.929 2.416z" fill="#0080ff" data-fill-palette-color="primary"></path><path d="M167.565 273.218l-0.133-0.743c-0.188-0.974-0.378-1.68-0.568-2.12v0c0.037-0.133-0.073-0.175-0.329-0.126v0c-0.277 0.054-0.622 0.194-1.034 0.421-0.42 0.222-0.755 0.43-1.005 0.626v0c-0.601 0.446-0.906 0.828-0.914 1.145v0l0.643 3.326-0.821 0.159c-0.162-0.256-0.367-1.027-0.616-2.311v0c-0.221-1.143-0.36-1.985-0.415-2.529-0.064-0.549-0.09-0.863-0.078-0.942v0c0.183-0.176 0.343-0.277 0.478-0.303v0c0.203-0.039 0.351 0.181 0.444 0.661v0c0.037 0.189 0.062 0.374 0.076 0.553 0.012 0.173 0.025 0.293 0.038 0.361v0c1.13-1.229 2.06-1.914 2.79-2.055v0c0.825-0.16 1.424 0.415 1.796 1.725v0c0.138 0.457 0.286 1.098 0.446 1.924v0l0.176 0.965c0.071 0.365 0.145 0.712 0.223 1.041v0c-0.072 0.063-0.132 0.099-0.179 0.108v0c-0.028-0.002-0.084-0.001-0.169 0.001-0.085-0.005-0.192 0.002-0.322 0.02v0c-0.144-0.309-0.255-0.631-0.334-0.966-0.072-0.337-0.136-0.65-0.193-0.941z" fill="#0080ff" data-fill-palette-color="primary"></path><path d="M177.132 272.898l-0.634-2.031c-0.461 0.072-0.714 0.035-0.759-0.109v0c-0.031-0.099 0.008-0.241 0.116-0.426 0.108-0.185 0.216-0.37 0.324-0.555v0c-0.15-0.48-0.389-0.993-0.718-1.54-0.329-0.546-0.574-0.972-0.734-1.275-0.168-0.308-0.295-0.597-0.378-0.866-0.084-0.27-0.095-0.454-0.032-0.553 0.058-0.09 0.166-0.16 0.324-0.21 0.164-0.051 0.276-0.064 0.334-0.039 0.06 0.032 0.107 0.078 0.141 0.14 0.038 0.053 0.069 0.116 0.091 0.188 0.029 0.07 0.067 0.134 0.114 0.192v0c0.087 0.139 0.232 0.177 0.436 0.113v0c0.528-0.179 1.046-0.392 1.554-0.637 0.506-0.252 1.005-0.501 1.497-0.749v0c0.996-0.506 1.705-0.824 2.126-0.955 0.427-0.133 0.767-0.225 1.018-0.275v0c0.06 0.147 0.118 0.273 0.172 0.379 0.059 0.097 0.1 0.182 0.123 0.254v0c0.043 0.138-0.073 0.228-0.348 0.271v0c-4.101 1.446-6.078 2.402-5.933 2.869v0c0.16 0.513 0.331 0.946 0.514 1.3 0.187 0.346 0.315 0.558 0.383 0.638 0.064 0.088 0.118 0.125 0.165 0.111v0c0.454-0.142 0.901-0.325 1.343-0.549 0.442-0.225 0.879-0.455 1.311-0.69 0.438-0.238 0.878-0.469 1.32-0.694 0.442-0.225 0.89-0.408 1.343-0.549v0c0.007-0.002 0.019 0.026 0.038 0.086 0.018 0.059 0.036 0.126 0.051 0.2v0c0.033 0.199 0.063 0.294 0.09 0.286v0c-0.282 0.297-0.852 0.645-1.709 1.042v0c-0.371 0.174-0.754 0.347-1.147 0.52-0.391 0.18-0.746 0.348-1.065 0.506v0c-0.754 0.358-1.165 0.648-1.232 0.871v0l0.588 2.37c-0.057 0.119-0.141 0.195-0.253 0.231v0l-0.446 0.096c-0.039 0.012-0.082 0.026-0.128 0.04z" fill="#0080ff" data-fill-palette-color="primary"></path><path d="M185.152 267.75v0c-0.356-0.918-0.247-1.81 0.326-2.674v0c0.458-0.687 1.109-1.246 1.954-1.677v0c0.051-0.02 0.161-0.062 0.327-0.127 0.173-0.067 0.421-0.104 0.744-0.111v0c0.718-0.034 1.302 0.178 1.754 0.639v0c0.174 0.183 0.292 0.352 0.351 0.506 0.057 0.148 0.095 0.255 0.113 0.322v0c0.376 0.97 0.303 1.877-0.219 2.721v0c-0.484 0.771-1.237 1.354-2.258 1.75v0c-0.738 0.286-1.363 0.332-1.873 0.139-0.504-0.196-0.911-0.692-1.219-1.488zM186.059 267.719v0c0.184 0.475 0.438 0.75 0.762 0.824v0c0.24 0.047 0.588-0.017 1.044-0.194 0.462-0.179 0.853-0.371 1.173-0.576 0.322-0.199 0.584-0.437 0.786-0.715v0c0.44-0.599 0.508-1.29 0.205-2.073v0c-0.179-0.462-0.451-0.793-0.816-0.991v0c-0.394-0.217-0.813-0.239-1.256-0.067v0c-0.279 0.175-0.559 0.349-0.838 0.524-0.283 0.184-0.525 0.418-0.725 0.702v0c-0.444 0.608-0.556 1.463-0.335 2.566z" fill="#0080ff" data-fill-palette-color="primary"></path><path d="M196.975 260.338v0c-0.416-0.081-0.875-0.006-1.375 0.224v0c-0.469 0.216-0.863 0.504-1.183 0.864v0c-0.61 0.668-0.938 1.312-0.986 1.932v0c-0.018 0.289 0.031 0.562 0.15 0.818v0c0.02 0.044 0.078 0.169 0.173 0.376 0.095 0.206 0.261 0.467 0.497 0.783 0.243 0.313 0.448 0.65 0.615 1.013v0c-0.157 0.087-0.276 0.165-0.359 0.233-0.086 0.077-0.163 0.132-0.231 0.164-0.069 0.032-0.141 0.031-0.217-0.002-0.079-0.039-0.187-0.134-0.324-0.283v0c-0.026-0.041-0.101-0.162-0.224-0.363-0.123-0.201-0.269-0.445-0.439-0.73-0.176-0.283-0.366-0.597-0.571-0.943-0.208-0.336-0.41-0.668-0.606-0.994v0c-0.43-0.719-0.749-1.247-0.957-1.584v0c-0.084-0.181 0.006-0.333 0.268-0.453v0c0.156-0.072 0.312-0.064 0.466 0.024 0.148 0.091 0.291 0.211 0.428 0.36 0.128 0.146 0.239 0.296 0.332 0.45 0.097 0.16 0.17 0.27 0.221 0.33v0c0.582-1.353 1.611-2.369 3.087-3.049v0c0.169-0.078 0.345-0.155 0.53-0.233v0c0.041-0.026 0.096-0.055 0.164-0.087 0.069-0.032 0.159-0.017 0.271 0.046v0c0.13 0.069 0.23 0.178 0.3 0.328v0c0.173 0.375 0.163 0.634-0.03 0.776z" fill="#0080ff" data-fill-palette-color="primary"></path><path d="M208.765 259.321v0c-0.118 0.07-0.261 0.107-0.428 0.11v0c-0.346-0.002-0.526-0.076-0.539-0.22v0c-0.005-0.197-0.074-0.561-0.206-1.091v0l-0.283-1.142c-0.083-0.368-0.185-0.768-0.306-1.201v0l-4.599-1.204c-0.086-0.037-0.143-0.079-0.172-0.126-0.032-0.053-0.03-0.111 0.006-0.172v0c0.07-0.098 0.17-0.185 0.3-0.263 0.136-0.081 0.284-0.141 0.446-0.181 0.17-0.037 0.408-0.035 0.713 0.008v0c0.613 0.1 1.714 0.43 3.306 0.989v0c-0.313-1.481-0.483-2.453-0.511-2.918-0.022-0.468-0.01-0.784 0.037-0.947 0.049-0.173 0.116-0.29 0.201-0.348 0.085-0.059 0.164-0.102 0.236-0.129 0.076-0.021 0.153 0.001 0.232 0.066v0c0.057 0.607 0.163 1.269 0.318 1.987 0.155 0.717 0.311 1.458 0.469 2.221v0c0.442 2.021 0.702 3.541 0.78 4.561z" fill="#0080ff" data-fill-palette-color="primary"></path><path d="M211.575 254.537v0c-0.553-0.815-0.647-1.708-0.282-2.679v0c0.292-0.772 0.801-1.463 1.528-2.072v0c0.046-0.031 0.142-0.097 0.29-0.197 0.154-0.104 0.387-0.196 0.7-0.275v0c0.692-0.195 1.309-0.118 1.852 0.229v0c0.211 0.14 0.363 0.278 0.456 0.414 0.089 0.131 0.15 0.227 0.183 0.288v0c0.584 0.861 0.716 1.761 0.397 2.701v0c-0.299 0.86-0.901 1.597-1.807 2.212v0c-0.655 0.445-1.254 0.63-1.795 0.556-0.535-0.078-1.043-0.47-1.522-1.177zM212.453 254.304v0c0.286 0.422 0.595 0.632 0.927 0.631v0c0.244-0.008 0.569-0.149 0.974-0.423 0.41-0.278 0.748-0.553 1.013-0.825 0.269-0.266 0.471-0.557 0.606-0.872v0c0.294-0.682 0.206-1.371-0.266-2.067v0c-0.278-0.41-0.617-0.671-1.017-0.782v0c-0.433-0.123-0.846-0.051-1.239 0.216v0c-0.233 0.233-0.466 0.466-0.699 0.699-0.235 0.243-0.418 0.525-0.549 0.846v0c-0.296 0.692-0.213 1.551 0.25 2.577z" fill="#0080ff" data-fill-palette-color="primary"></path><path d="M218.314 250.729v0c-0.08-0.104-0.199-0.242-0.358-0.415-0.163-0.178-0.339-0.373-0.528-0.584-0.183-0.215-0.363-0.438-0.539-0.667-0.176-0.229-0.319-0.454-0.428-0.674v0c-0.245-0.498-0.233-0.85 0.034-1.056v0c0.228-0.088 0.401-0.117 0.52-0.087 0.128 0.031 0.237 0.104 0.325 0.219 0.088 0.115 0.17 0.282 0.244 0.503v0c0.223 0.741 0.511 1.341 0.863 1.799v0c0.118 0.153 0.252 0.305 0.404 0.457v0c0.444 0.362 0.977 0.304 1.599-0.175v0c0.322-0.248 0.586-0.538 0.791-0.869v0c0.391-0.632 0.578-1.162 0.561-1.592v0c-0.171-0.346-0.345-0.634-0.521-0.863-0.172-0.224-0.336-0.419-0.491-0.587-0.155-0.167-0.325-0.349-0.511-0.545-0.186-0.196-0.38-0.42-0.583-0.672v0c0.052-0.101 0.12-0.183 0.201-0.246 0.087-0.067 0.206-0.093 0.357-0.079 0.155 0.02 0.355 0.122 0.601 0.306 0.245 0.194 0.5 0.441 0.765 0.74 0.264 0.309 0.531 0.634 0.802 0.974 0.27 0.34 0.527 0.668 0.77 0.984 0.248 0.322 0.471 0.589 0.669 0.801v0c-0.022 0.13-0.068 0.222-0.139 0.277v0c-0.267 0.206-0.665 0.095-1.194-0.332v0c-0.027 0.134-0.105 0.333-0.232 0.596v0c-0.246 0.572-0.637 1.125-1.173 1.659v0c-0.102 0.105-0.221 0.209-0.358 0.314-0.136 0.105-0.329 0.21-0.579 0.315-0.249 0.105-0.54 0.133-0.872 0.086-0.333-0.048-0.666-0.244-1-0.587z" fill="#0080ff" data-fill-palette-color="primary"></path><path d="M226.904 239.946v0c-0.423 0.038-0.842 0.238-1.258 0.599v0c-0.39 0.338-0.689 0.725-0.895 1.159v0c-0.399 0.811-0.535 1.522-0.408 2.131v0c0.063 0.283 0.187 0.531 0.372 0.744v0c0.032 0.036 0.122 0.14 0.271 0.312 0.149 0.172 0.381 0.376 0.696 0.613 0.32 0.233 0.611 0.5 0.873 0.802v0c-0.126 0.128-0.219 0.236-0.28 0.324-0.061 0.098-0.12 0.172-0.177 0.222-0.057 0.05-0.127 0.069-0.209 0.058-0.087-0.016-0.217-0.076-0.39-0.181v0c-0.037-0.032-0.142-0.127-0.316-0.286-0.174-0.159-0.383-0.352-0.625-0.579-0.248-0.223-0.518-0.471-0.811-0.746-0.294-0.265-0.58-0.527-0.86-0.786v0c-0.614-0.571-1.067-0.989-1.36-1.254v0c-0.131-0.151-0.087-0.321 0.131-0.51v0c0.13-0.113 0.281-0.148 0.455-0.107 0.168 0.046 0.338 0.122 0.511 0.227 0.163 0.104 0.312 0.217 0.444 0.339 0.137 0.127 0.239 0.212 0.304 0.256v0c0.182-1.461 0.887-2.724 2.115-3.789v0c0.14-0.122 0.288-0.246 0.443-0.371v0c0.032-0.037 0.076-0.08 0.134-0.13 0.057-0.05 0.148-0.06 0.273-0.032v0c0.144 0.03 0.271 0.107 0.379 0.232v0c0.271 0.312 0.333 0.563 0.188 0.753z" fill="#0080ff" data-fill-palette-color="primary"></path><path d="M235.058 229.4v0l-0.771 0.807c-0.196 0.213-0.404 0.48-0.625 0.801v0c0.229 0.229 0.517 0.537 0.864 0.922v0c1.226 1.373 2.039 2.243 2.439 2.611 0.4 0.369 0.691 0.622 0.872 0.761v0l-0.737 0.922-4.262-4.459-1.912 1.848c-0.047 0.051-0.124 0.054-0.234 0.009-0.099-0.045-0.184-0.1-0.255-0.165-0.066-0.061-0.114-0.156-0.143-0.286-0.025-0.126-0.004-0.224 0.061-0.295v0c0.426-0.432 0.871-0.855 1.336-1.268v0c0.841-0.77 1.532-1.449 2.073-2.037v0l0.51-0.584c0.4-0.455 0.76-0.943 1.08-1.463v0c0.104-0.082 0.312-0.003 0.624 0.238v0c0.065 0.051 0.116 0.093 0.151 0.125v0c-0.252 0.507-0.609 1.012-1.071 1.513z" fill="#0080ff" data-fill-palette-color="primary"></path><path d="M242.007 223.548v0c-0.41 0.111-0.788 0.38-1.136 0.807v0c-0.326 0.401-0.553 0.833-0.681 1.297v0c-0.253 0.868-0.264 1.591-0.033 2.169v0c0.111 0.268 0.276 0.49 0.495 0.669v0c0.037 0.03 0.144 0.117 0.321 0.26 0.176 0.143 0.44 0.305 0.791 0.484 0.356 0.174 0.689 0.387 0.999 0.638v0c-0.102 0.148-0.175 0.27-0.219 0.368-0.043 0.107-0.088 0.19-0.136 0.249-0.048 0.059-0.113 0.09-0.196 0.094-0.088-0.001-0.227-0.038-0.415-0.112v0c-0.042-0.025-0.162-0.101-0.362-0.227-0.199-0.126-0.438-0.28-0.715-0.462-0.283-0.176-0.592-0.375-0.928-0.594-0.335-0.21-0.662-0.419-0.983-0.626v0c-0.703-0.456-1.222-0.789-1.557-0.999v0c-0.155-0.126-0.141-0.301 0.041-0.525v0c0.109-0.134 0.252-0.195 0.429-0.184 0.173 0.016 0.354 0.061 0.543 0.135 0.179 0.075 0.345 0.16 0.496 0.257 0.157 0.101 0.272 0.168 0.344 0.199v0c-0.074-1.471 0.402-2.837 1.427-4.098v0c0.117-0.144 0.242-0.292 0.373-0.442v0c0.025-0.042 0.061-0.092 0.109-0.151 0.048-0.059 0.136-0.085 0.264-0.078v0c0.147 0.004 0.285 0.059 0.413 0.163v0c0.321 0.261 0.426 0.497 0.316 0.709z" fill="#0080ff" data-fill-palette-color="primary"></path><path d="M247.889 219.699v0c0.428 1.08 0.435 2.107 0.022 3.082v0c-0.102 0.224-0.211 0.417-0.327 0.579-0.113 0.157-0.21 0.286-0.292 0.388-0.076 0.106-0.175 0.214-0.295 0.322-0.116 0.103-0.246 0.188-0.388 0.255v0c-0.317 0.145-0.604 0.126-0.861-0.059v0c-0.143-0.061-0.29-0.145-0.441-0.254-0.151-0.109-0.328-0.287-0.531-0.535-0.198-0.244-0.378-0.56-0.54-0.948-0.162-0.388-0.273-0.799-0.334-1.233v0c-0.127-0.897-0.042-1.71 0.253-2.439v0c0.094-0.213 0.195-0.394 0.304-0.545 0.109-0.151 0.218-0.28 0.329-0.387v0c0.281-0.391 0.736-0.463 1.363-0.215v0c0.4 0.152 0.907 0.437 1.523 0.854 0.616 0.418 1.095 0.737 1.437 0.957 0.336 0.216 0.665 0.39 0.988 0.52v0l-0.429 0.595c-0.205-0.105-0.383-0.199-0.534-0.282-0.153-0.093-0.293-0.177-0.419-0.25v0c-0.313-0.166-0.589-0.301-0.828-0.405zM246.283 218.606v0c-0.391-0.281-0.726-0.229-1.003 0.157v0c-0.038 0.041-0.075 0.086-0.111 0.136v0c-0.354 0.492-0.488 1.18-0.404 2.064v0c0.027 0.41 0.112 0.806 0.253 1.187v0c0.187 0.542 0.434 0.923 0.742 1.145v0c0.397 0.286 0.797 0.225 1.199-0.181v0c0.427-0.617 0.569-1.398 0.425-2.341v0c-0.066-0.404-0.179-0.782-0.341-1.136v0c-0.222-0.482-0.475-0.825-0.76-1.031z" fill="#0080ff" data-fill-palette-color="primary"></path><path d="M251.978 213.624l-0.63-0.414c-0.835-0.534-1.478-0.884-1.928-1.05v0c-0.071-0.119-0.177-0.068-0.318 0.152v0c-0.152 0.238-0.288 0.584-0.407 1.04-0.129 0.457-0.208 0.843-0.239 1.159v0c-0.091 0.743-0.024 1.227 0.199 1.452v0l2.855 1.825-0.451 0.705c-0.297-0.059-0.997-0.441-2.099-1.147v0c-0.98-0.627-1.687-1.107-2.119-1.441-0.442-0.332-0.687-0.529-0.737-0.593v0c-0.001-0.254 0.036-0.439 0.11-0.555v0c0.111-0.174 0.373-0.129 0.785 0.134v0c0.162 0.104 0.314 0.213 0.453 0.327 0.134 0.11 0.23 0.184 0.288 0.22v0c-0.112-1.665 0.033-2.811 0.433-3.438v0c0.453-0.708 1.282-0.745 2.488-0.113v0c0.426 0.215 0.993 0.549 1.701 1.002v0l0.821 0.538c0.313 0.2 0.616 0.386 0.908 0.556v0c-0.004 0.096-0.019 0.164-0.045 0.204v0c-0.021 0.019-0.059 0.06-0.115 0.122-0.062 0.058-0.131 0.141-0.208 0.248v0c-0.323-0.108-0.633-0.25-0.93-0.424-0.294-0.18-0.565-0.349-0.815-0.509z" fill="#0080ff" data-fill-palette-color="primary"></path><path d="M254.237 207.233v0c0.45-0.798 0.876-1.083 1.278-0.857v0c0.306 0.172 0.536 0.591 0.691 1.256v0c0.234 1.001 0.216 2.161-0.052 3.48v0c-0.03 0.054-0.114 0.082-0.25 0.084-0.136 0.003-0.241 0.007-0.315 0.013-0.071 0-0.116 0.002-0.134 0.007v0c0.191-0.983 0.243-1.855 0.157-2.615v0c-0.061-0.509-0.176-0.81-0.343-0.905-0.162-0.091-0.363 0.076-0.603 0.502-0.24 0.426-0.494 1.109-0.763 2.048v0c-0.225 0.371-0.541 0.624-0.949 0.758v0c-0.36 0.105-0.654 0.094-0.882-0.035-0.228-0.128-0.402-0.31-0.523-0.544-0.118-0.24-0.196-0.514-0.237-0.821-0.046-0.311-0.056-0.652-0.027-1.023v0c0.057-0.901 0.3-1.732 0.729-2.494v0c0.125-0.222 0.268-0.426 0.428-0.612v0c0.098-0.174 0.234-0.232 0.407-0.175 0.167 0.055 0.424 0.18 0.772 0.376v0c-0.438 0.314-0.809 0.741-1.114 1.282v0c-0.375 0.666-0.55 1.291-0.523 1.875v0c0.01 0.599 0.222 1.022 0.636 1.271v0c0.198 0.112 0.38 0.02 0.545-0.274v0l0.365-0.837c0.241-0.765 0.477-1.351 0.707-1.76z" fill="#0080ff" data-fill-palette-color="primary"></path><path d="M254.559 202.765v0c0.148-1.193 0.403-2.157 0.765-2.893v0c0.461-0.94 1.017-1.446 1.666-1.518v0c0.299-0.03 0.584 0.022 0.855 0.156v0c0.371 0.182 0.696 0.488 0.977 0.917 0.28 0.429 0.486 0.917 0.616 1.464v0c0.292 1.264 0.211 2.585-0.244 3.965v0c0.087 0.042 0.221 0.105 0.403 0.187 0.185 0.091 0.391 0.188 0.617 0.291 0.226 0.103 0.465 0.217 0.718 0.341 0.256 0.118 0.504 0.232 0.742 0.342v0c0.587 0.258 0.922 0.403 1.005 0.436 0.086 0.027 0.157 0.054 0.213 0.081v0c0.185 0.091 0.296 0.218 0.331 0.381 0.035 0.163 0.004 0.343-0.093 0.541v0c-0.018 0.037-0.036 0.074-0.055 0.112v0l-9.08-4.24c-0.066-0.117-0.068-0.229-0.007-0.337 0.061-0.108 0.136-0.183 0.225-0.223 0.083-0.044 0.198-0.045 0.346-0.003zM256.556 199.683v0c-0.245 0.187-0.436 0.419-0.573 0.697-0.137 0.278-0.248 0.568-0.335 0.871v0c-0.189 0.682-0.151 1.276 0.114 1.783v0c0.128 0.224 0.334 0.406 0.619 0.545v0c0.031 0.015 0.062 0.03 0.092 0.045v0l1.938 0.952c0.407-1.703 0.462-3.026 0.166-3.97v0c-0.17-0.544-0.441-0.907-0.812-1.088v0c-0.396-0.194-0.799-0.139-1.209 0.165z" fill="#0080ff" data-fill-palette-color="primary"></path><path d="M259.96 197.515v0c-0.909-0.378-1.478-1.073-1.705-2.085v0c-0.179-0.806-0.133-1.662 0.14-2.571v0c0.021-0.051 0.066-0.159 0.135-0.324 0.071-0.172 0.216-0.376 0.435-0.613v0c0.472-0.542 1.03-0.817 1.674-0.825v0c0.253 0.001 0.456 0.033 0.609 0.096 0.146 0.061 0.25 0.108 0.31 0.141v0c0.96 0.399 1.565 1.08 1.814 2.041v0c0.222 0.883 0.123 1.83-0.298 2.84v0c-0.304 0.731-0.703 1.214-1.196 1.449-0.49 0.229-1.13 0.179-1.918-0.149zM260.566 196.839v0c0.47 0.196 0.844 0.202 1.122 0.019v0c0.2-0.14 0.394-0.436 0.582-0.888 0.19-0.458 0.322-0.873 0.395-1.245 0.079-0.37 0.089-0.724 0.028-1.062v0c-0.128-0.732-0.58-1.259-1.356-1.582v0c-0.458-0.19-0.884-0.223-1.28-0.097v0c-0.429 0.135-0.735 0.421-0.917 0.861v0c-0.067 0.323-0.134 0.645-0.201 0.968-0.063 0.332-0.062 0.668 0.005 1.009v0c0.132 0.741 0.672 1.413 1.622 2.017z" fill="#0080ff" data-fill-palette-color="primary"></path><path d="M262.787 183.85v0c-0.347 0.245-0.61 0.627-0.789 1.148v0c-0.168 0.488-0.233 0.972-0.195 1.451v0c0.06 0.902 0.298 1.585 0.714 2.049v0c0.196 0.213 0.427 0.366 0.694 0.458v0c0.046 0.016 0.176 0.061 0.39 0.135 0.215 0.074 0.518 0.135 0.91 0.183 0.394 0.041 0.779 0.127 1.157 0.257v0c-0.045 0.174-0.072 0.314-0.08 0.42-0.003 0.115-0.017 0.209-0.042 0.281-0.025 0.072-0.075 0.123-0.152 0.155-0.083 0.03-0.226 0.042-0.428 0.038v0c-0.048-0.009-0.187-0.039-0.417-0.089-0.23-0.05-0.507-0.113-0.831-0.189-0.326-0.069-0.684-0.149-1.076-0.239-0.387-0.082-0.766-0.166-1.137-0.251v0c-0.817-0.187-1.419-0.322-1.805-0.404v0c-0.189-0.065-0.236-0.234-0.142-0.508v0c0.056-0.163 0.169-0.269 0.34-0.32 0.168-0.044 0.353-0.064 0.556-0.059 0.194 0.009 0.379 0.032 0.554 0.071 0.182 0.041 0.313 0.064 0.391 0.069v0c-0.574-1.356-0.596-2.802-0.066-4.338v0c0.061-0.176 0.127-0.357 0.199-0.544v0c0.009-0.048 0.026-0.108 0.051-0.179 0.025-0.072 0.098-0.126 0.22-0.164v0c0.14-0.046 0.288-0.043 0.444 0.011v0c0.391 0.135 0.57 0.321 0.54 0.558z" fill="#0080ff" data-fill-palette-color="primary"></path><path d="M267.02 181.365v0l-1.911-0.567c-0.305-0.087-0.574-0.135-0.808-0.145v0l-0.53 1.858-0.833-0.205 0.513-1.798-3.089-0.881c-0.065-0.047-0.124-0.118-0.176-0.212v0c-0.08-0.145-0.11-0.253-0.089-0.326 0.023-0.079 0.048-0.144 0.076-0.193 0.037-0.054 0.11-0.097 0.22-0.131v0c0.568 0.019 1.384 0.18 2.45 0.485v0c0.258 0.074 0.519 0.137 0.784 0.191v0c0.041-0.268 0.097-0.527 0.168-0.779v0c0 0 0.059-0.209 0.179-0.626v0c0.043-0.152 0.077-0.297 0.102-0.433v0l0.852 0.286-0.548 1.734 4.149 1.119c0.025 0.165 0.022 0.3-0.008 0.406v0c-0.113 0.397-0.614 0.469-1.501 0.217z" fill="#0080ff" data-fill-palette-color="primary"></path></g></svg></g></svg></g></svg></g></svg></g><defs></defs></svg><rect width="279.72" height="279.72" fill="none" stroke="none" visibility="hidden"></rect></g></svg></g></svg>